[Header]
FileType HTR
DataType HTRS
FileVersion 1
NumSegments 64
NumFrames 4
DataFrameRate 24
EulerRotationOrder ZYX
CalibrationUnits mm
RotationUnits Degrees
GlobalAxisofGravity Y
BoneLengthAxis Y
ScaleFactor 1.0
[SegmentNames&Hierarchy]
Hips	GLOBAL
Spine	Hips
Spine1	Spine
Spine2	Spine1
Neck	Spine2
Head	Neck
LeftEye	Head
RightEye	Head
LeftShoulder	Spine2
LeftArm	LeftShoulder
LeftForeArm	LeftArm
LeftHand	LeftForeArm
LeftHandThumb1	LeftHand
LeftHandThumb2	LeftHandThumb1
LeftHandThumb3	LeftHandThumb2
LeftHandThumb4	LeftHandThumb3
LeftHandIndex1	LeftHand
LeftHandIndex2	LeftHandIndex1
LeftHandIndex3	LeftHandIndex2
LeftHandIndex4	LeftHandIndex3
LeftHandMiddle1	LeftHand
LeftHandMiddle2	LeftHandMiddle1
LeftHandMiddle3	LeftHandMiddle2
LeftHandMiddle4	LeftHandMiddle3
LeftHandRing1	LeftHand
LeftHandRing2	LeftHandRing1
LeftHandRing3	LeftHandRing2
LeftHandRing4	LeftHandRing3
LeftHandPinky1	LeftHand
LeftHandPinky2	LeftHandPinky1
LeftHandPinky3	LeftHandPinky2
LeftHandPinky4	LeftHandPinky3
RightShoulder	Spine2
RightArm	RightShoulder
RightForeArm	RightArm
RightHand	RightForeArm
RightHandPinky1	RightHand
RightHandPinky2	RightHandPinky1
RightHandPinky3	RightHandPinky2
RightHandPinky4	RightHandPinky3
RightHandRing1	RightHand
RightHandRing2	RightHandRing1
RightHandRing3	RightHandRing2
RightHandRing4	RightHandRing3
RightHandMiddle1	RightHand
RightHandMiddle2	RightHandMiddle1
RightHandMiddle3	RightHandMiddle2
RightHandMiddle4	RightHandMiddle3
RightHandIndex1	RightHand
RightHandIndex2	RightHandIndex1
RightHandIndex3	RightHandIndex2
RightHandIndex4	RightHandIndex3
RightHandThumb1	RightHand
RightHandThumb2	RightHandThumb1
RightHandThumb3	RightHandThumb2
RightHandThumb4	RightHandThumb3
LeftUpLeg	Hips
LeftLeg	LeftUpLeg
LeftFoot	LeftLeg
LeftToeBase	LeftFoot
RightUpLeg	Hips
RightLeg	RightUpLeg
RightFoot	RightLeg
RightToeBase	RightFoot
[BasePosition]
Hips	0	0	0	0	0	0	1
Spine	0	0	0	0	0	0	1
Spine1	0	0	0	0	0	0	1
Spine2	0	0	0	0	0	0	1
Neck	0	0	0	0	0	0	1
Head	0	0	0	0	0	0	1
LeftEye	0	0	0	0	0	0	1
RightEye	0	0	0	0	0	0	1
LeftShoulder	0	0	0	0	0	0	1
LeftArm	0	0	0	0	0	0	1
LeftForeArm	0	0	0	0	0	0	1
LeftHand	0	0	0	0	0	0	1
LeftHandThumb1	0	0	0	0	0	0	1
LeftHandThumb2	0	0	0	0	0	0	1
LeftHandThumb3	0	0	0	0	0	0	1
LeftHandThumb4	0	0	0	0	0	0	1
LeftHandIndex1	0	0	0	0	0	0	1
LeftHandIndex2	0	0	0	0	0	0	1
LeftHandIndex3	0	0	0	0	0	0	1
LeftHandIndex4	0	0	0	0	0	0	1
LeftHandMiddle1	0	0	0	0	0	0	1
LeftHandMiddle2	0	0	0	0	0	0	1
LeftHandMiddle3	0	0	0	0	0	0	1
LeftHandMiddle4	0	0	0	0	0	0	1
LeftHandRing1	0	0	0	0	0	0	1
LeftHandRing2	0	0	0	0	0	0	1
LeftHandRing3	0	0	0	0	0	0	1
LeftHandRing4	0	0	0	0	0	0	1
LeftHandPinky1	0	0	0	0	0	0	1
LeftHandPinky2	0	0	0	0	0	0	1
LeftHandPinky3	0	0	0	0	0	0	1
LeftHandPinky4	0	0	0	0	0	0	1
RightShoulder	0	0	0	0	0	0	1
RightArm	0	0	0	0	0	0	1
RightForeArm	0	0	0	0	0	0	1
RightHand	0	0	0	0	0	0	1
RightHandPinky1	0	0	0	0	0	0	1
RightHandPinky2	0	0	0	0	0	0	1
RightHandPinky3	0	0	0	0	0	0	1
RightHandPinky4	0	0	0	0	0	0	1
RightHandRing1	0	0	0	0	0	0	1
RightHandRing2	0	0	0	0	0	0	1
RightHandRing3	0	0	0	0	0	0	1
RightHandRing4	0	0	0	0	0	0	1
RightHandMiddle1	0	0	0	0	0	0	1
RightHandMiddle2	0	0	0	0	0	0	1
RightHandMiddle3	0	0	0	0	0	0	1
RightHandMiddle4	0	0	0	0	0	0	1
RightHandIndex1	0	0	0	0	0	0	1
RightHandIndex2	0	0	0	0	0	0	1
RightHandIndex3	0	0	0	0	0	0	1
RightHandIndex4	0	0	0	0	0	0	1
RightHandThumb1	0	0	0	0	0	0	1
RightHandThumb2	0	0	0	0	0	0	1
RightHandThumb3	0	0	0	0	0	0	1
RightHandThumb4	0	0	0	0	0	0	1
LeftUpLeg	0	0	0	0	0	0	1
LeftLeg	0	0	0	0	0	0	1
LeftFoot	0	0	0	0	0	0	1
LeftToeBase	0	0	0	0	0	0	1
RightUpLeg	0	0	0	0	0	0	1
RightLeg	0	0	0	0	0	0	1
RightFoot	0	0	0	0	0	0	1
RightToeBase	0	0	0	0	0	0	1
[Hips]
151	-6.142561436	1033.343018	22.68811226	-4.05064106	-5.236216545	-2.949657679	1.0
152	-6.100106239	1033.358276	22.50540733	-4.042651176	-5.247934341	-2.943481922	1.0
153	-6.049862862	1033.377197	22.32253647	-4.034985065	-5.260146141	-2.937995195	1.0
154	-5.986199379	1033.393311	22.13136673	-4.022787571	-5.26985693	-2.935145617	1.0
[Spine]
151	0	101.8159943	1.315000057	4.300441742	1.920724511	3.258060694	1.0
152	0	101.8159943	1.315000057	4.338031769	1.917424321	3.266906738	1.0
153	0	101.8159943	1.315000057	4.374584675	1.917219758	3.27551198	1.0
154	0	101.8159943	1.315000057	4.405388355	1.918167233	3.282686472	1.0
[Spine1]
151	0	100.8349991	-10.00800037	1.391943574	0.5397184491	1.70645082	1.0
152	0	100.8349991	-10.00800037	1.403909326	0.5385030508	1.709102154	1.0
153	0	100.8349991	-10.00800037	1.415613294	0.5385317206	1.711650729	1.0
154	0	100.8349991	-10.00800037	1.425637603	0.5389531851	1.713695407	1.0
[Spine2]
151	0	91	-13.73399925	1.367311239	0.5625941753	1.706568003	1.0
152	0	91	-13.73399925	1.379284859	0.5614045858	1.709161878	1.0
153	0	91	-13.73399925	1.390998125	0.561455369	1.711649537	1.0
154	0	91	-13.73399925	1.401031733	0.5618886352	1.71364665	1.0
[Neck]
151	0	166.7169952	-25.16200066	6.326746941	-0.2211642563	0.2627203465	1.0
152	0	166.7169952	-25.16200066	6.352591515	-0.2229912281	0.2584763169	1.0
153	0	166.7169952	-25.16200066	6.377373219	-0.2258850336	0.2552106977	1.0
154	0	166.7169952	-25.16200066	6.396112919	-0.2274931818	0.2569136024	1.0
[Head]
151	0	96.17900085	16.84999847	-8.922072411	0.9450045228	-0.1685001552	1.0
152	0	96.17900085	16.84999847	-8.912451744	0.9255759716	-0.1550733	1.0
153	0	96.17900085	16.84999847	-8.89981842	0.9039111733	-0.1404883862	1.0
154	0	96.17900085	16.84999847	-8.880446434	0.8969444633	-0.1286166459	1.0
[LeftEye]
151	30.6760006	64.09500122	92.83599854	0	0	0	1.0
152	30.6760006	64.09500122	92.83599854	0	0	0	1.0
153	30.6760006	64.09500122	92.83599854	0	0	0	1.0
154	30.6760006	64.09500122	92.83599854	0	0	0	1.0
[RightEye]
151	-30.6760006	64.09500122	92.83499908	0	0	0	1.0
152	-30.6760006	64.09500122	92.83499908	0	0	0	1.0
153	-30.6760006	64.09500122	92.83499908	0	0	0	1.0
154	-30.6760006	64.09500122	92.83499908	0	0	0	1.0
[LeftShoulder]
151	45.70400238	109.4599991	-26.28000069	5.042626858	-17.3322506	-13.73559475	1.0
152	45.70400238	109.4599991	-26.28000069	5.045091152	-17.34671402	-13.74295616	1.0
153	45.70400238	109.4599991	-26.28000069	5.047434807	-17.36034584	-13.75001144	1.0
154	45.70400238	109.4599991	-26.28000069	5.049764633	-17.37347794	-13.75718021	1.0
[LeftArm]
151	105.923996	-5.24600029	-22.32099915	19.8842411	-4.218409061	-70.87173462	1.0
152	105.923996	-5.24600029	-22.32099915	19.89931107	-4.250041008	-70.85748291	1.0
153	105.923996	-5.24600029	-22.32099915	19.91596985	-4.282361984	-70.84294128	1.0
154	105.923996	-5.24600029	-22.32099915	19.92925453	-4.307682991	-70.83184814	1.0
[LeftForeArm]
151	278.414978	-0.0009999999311	0	-3.404732297e-06	-1.863610268	-0.0001624618308	1.0
152	278.414978	-0.0009999999311	0	-5.381285519e-06	-1.863953114	-0.0001753124525	1.0
153	278.414978	-0.0009999999311	0	-8.16758984e-06	-1.865117192	-0.0001974189945	1.0
154	278.414978	-0.0009999999311	0	-1.02671047e-05	-1.877776742	-0.0002039166138	1.0
[LeftHand]
151	283.2879944	0	0	-33.68539429	-5.122449875	-3.312510967	1.0
152	283.2879944	0	0	-33.70702744	-5.159599781	-3.295568705	1.0
153	283.2879944	0	0	-33.72326279	-5.19396925	-3.282961845	1.0
154	283.2879944	0	0	-33.73799896	-5.211922646	-3.273471355	1.0
[LeftHandThumb1]
151	24.6609993	-15.75	26.8239994	-0.4889889657	2.201390743	4.818541527	1.0
152	24.6609993	-15.75	26.8239994	-0.4889889657	2.201390743	4.818541527	1.0
153	24.6609993	-15.75	26.8239994	-0.4889889657	2.201390743	4.818541527	1.0
154	24.6609993	-15.75	26.8239994	-0.4889889657	2.201390743	4.818541527	1.0
[LeftHandThumb2]
151	32.29800034	-18.64699936	18.64699936	19.88581276	19.96446037	23.26738167	1.0
152	32.29800034	-18.64699936	18.64699936	19.88581276	19.96446037	23.26738167	1.0
153	32.29800034	-18.64699936	18.64699936	19.88581276	19.96446037	23.26738167	1.0
154	32.29800034	-18.64699936	18.64699936	19.88581276	19.96446037	23.26738167	1.0
[LeftHandThumb3]
151	26.52600098	-15.31499958	15.31499958	-13.14535904	5.551738262	7.967928886	1.0
152	26.52600098	-15.31499958	15.31499958	-13.14535904	5.551738262	7.967928886	1.0
153	26.52600098	-15.31499958	15.31499958	-13.14535904	5.551738262	7.967928886	1.0
154	26.52600098	-15.31499958	15.31499958	-13.14535904	5.551738262	7.967928886	1.0
[LeftHandThumb4]
151	19.54599953	-11.28499985	11.28499985	0	0	0	1.0
152	19.54599953	-11.28499985	11.28499985	0	0	0	1.0
153	19.54599953	-11.28499985	11.28499985	0	0	0	1.0
154	19.54599953	-11.28499985	11.28499985	0	0	0	1.0
[LeftHandIndex1]
151	91.09299469	-5.170999527	22.60099792	0.1480516791	-0.9618676901	-7.594518185	1.0
152	91.09299469	-5.170999527	22.60099792	0.1480516791	-0.9618676901	-7.594518185	1.0
153	91.09299469	-5.170999527	22.60099792	0.1480516791	-0.9618676901	-7.594518185	1.0
154	91.09299469	-5.170999527	22.60099792	0.1480516791	-0.9618676901	-7.594518185	1.0
[LeftHandIndex2]
151	36.76399994	0	0	-0.2667043209	1.745171905	-17.37646866	1.0
152	36.76399994	0	0	-0.2667043209	1.745171905	-17.37646866	1.0
153	36.76399994	0	0	-0.2667043209	1.745171905	-17.37646866	1.0
154	36.76399994	0	0	-0.2667043209	1.745171905	-17.37646866	1.0
[LeftHandIndex3]
151	28.83100128	0	0	-0.05742863193	0.817338407	-8.038370132	1.0
152	28.83100128	0	0	-0.05742863193	0.817338407	-8.038370132	1.0
153	28.83100128	0	0	-0.05742863193	0.817338407	-8.038370132	1.0
154	28.83100128	0	0	-0.05742863193	0.817338407	-8.038370132	1.0
[LeftHandIndex4]
151	23.92700005	0	0	0	0	0	1.0
152	23.92700005	0	0	0	0	0	1.0
153	23.92700005	0	0	0	0	0	1.0
154	23.92700005	0	0	0	0	0	1.0
[LeftHandMiddle1]
151	95.33399963	0	0	-0.7942916155	2.538622379	-15.71737862	1.0
152	95.33399963	0	0	-0.7942916155	2.538622379	-15.71737862	1.0
153	95.33399963	0	0	-0.7942916155	2.538622379	-15.71737862	1.0
154	95.33399963	0	0	-0.7942916155	2.538622379	-15.71737862	1.0
[LeftHandMiddle2]
151	36.98199844	0	0	-0.267610997	1.748071074	-17.40625954	1.0
152	36.98199844	0	0	-0.267610997	1.748071074	-17.40625954	1.0
153	36.98199844	0	0	-0.267610997	1.748071074	-17.40625954	1.0
154	36.98199844	0	0	-0.267610997	1.748071074	-17.40625954	1.0
[LeftHandMiddle3]
151	29.50900078	0	0	-0.2992140949	1.84580946	-18.41413307	1.0
152	29.50900078	0	0	-0.2992140949	1.84580946	-18.41413307	1.0
153	29.50900078	0	0	-0.2992140949	1.84580946	-18.41413307	1.0
154	29.50900078	0	0	-0.2992140949	1.84580946	-18.41413307	1.0
[LeftHandMiddle4]
151	28.3390007	0	0	0	0	0	1.0
152	28.3390007	0	0	0	0	0	1.0
153	28.3390007	0	0	0	0	0	1.0
154	28.3390007	0	0	0	0	0	1.0
[LeftHandRing1]
151	91.04499817	-0.4390000105	-18.65100098	-1.184956431	3.436642885	-21.16632462	1.0
152	91.04499817	-0.4390000105	-18.65100098	-1.184956431	3.436642885	-21.16632462	1.0
153	91.04499817	-0.4390000105	-18.65100098	-1.184956431	3.436642885	-21.16632462	1.0
154	91.04499817	-0.4390000105	-18.65100098	-1.184956431	3.436642885	-21.16632462	1.0
[LeftHandRing2]
151	31.54000092	0	0	-0.3849357069	2.085560799	-20.91281319	1.0
152	31.54000092	0	0	-0.3849357069	2.085560799	-20.91281319	1.0
153	31.54000092	0	0	-0.3849357069	2.085560799	-20.91281319	1.0
154	31.54000092	0	0	-0.3849357069	2.085560799	-20.91281319	1.0
[LeftHandRing3]
151	29.37700081	0	0	-0.2818065584	1.792707562	-17.86576271	1.0
152	29.37700081	0	0	-0.2818065584	1.792707562	-17.86576271	1.0
153	29.37700081	0	0	-0.2818065584	1.792707562	-17.86576271	1.0
154	29.37700081	0	0	-0.2818065584	1.792707562	-17.86576271	1.0
[LeftHandRing4]
151	26.47500038	0	0	0	0	0	1.0
152	26.47500038	0	0	0	0	0	1.0
153	26.47500038	0	0	0	0	0	1.0
154	26.47500038	0	0	0	0	0	1.0
[LeftHandPinky1]
151	80.77799988	-4.887000084	-38.06099701	-1.708467126	5.355370045	-27.1653862	1.0
152	80.77799988	-4.887000084	-38.06099701	-1.708467126	5.355370045	-27.1653862	1.0
153	80.77799988	-4.887000084	-38.06099701	-1.708467126	5.355370045	-27.1653862	1.0
154	80.77799988	-4.887000084	-38.06099701	-1.708467126	5.355370045	-27.1653862	1.0
[LeftHandPinky2]
151	36	0	0	-0.2676221728	1.748113751	-17.40663528	1.0
152	36	0	0	-0.2676221728	1.748113751	-17.40663528	1.0
153	36	0	0	-0.2676221728	1.748113751	-17.40663528	1.0
154	36	0	0	-0.2676221728	1.748113751	-17.40663528	1.0
[LeftHandPinky3]
151	21.14200211	0	0	-0.2408525199	1.660349369	-16.50663185	1.0
152	21.14200211	0	0	-0.2408525199	1.660349369	-16.50663185	1.0
153	21.14200211	0	0	-0.2408525199	1.660349369	-16.50663185	1.0
154	21.14200211	0	0	-0.2408525199	1.660349369	-16.50663185	1.0
[LeftHandPinky4]
151	19.75699997	0	0	0	0	0	1.0
152	19.75699997	0	0	0	0	0	1.0
153	19.75699997	0	0	0	0	0	1.0
154	19.75699997	0	0	0	0	0	1.0
[RightShoulder]
151	-45.70000076	109.4620056	-26.28000069	5.312986851	15.39038944	15.83739662	1.0
152	-45.70000076	109.4620056	-26.28000069	5.312214375	15.41030693	15.82292366	1.0
153	-45.70000076	109.4620056	-26.28000069	5.311347485	15.42677021	15.80969048	1.0
154	-45.70000076	109.4620056	-26.28000069	5.310166836	15.43160152	15.80060768	1.0
[RightArm]
151	-105.9280014	-5.248000145	-22.32099915	29.64453888	1.941081882	62.29935455	1.0
152	-105.9280014	-5.248000145	-22.32099915	29.61624146	1.929407001	62.30374908	1.0
153	-105.9280014	-5.248000145	-22.32099915	29.58586311	1.915403605	62.31157303	1.0
154	-105.9280014	-5.248000145	-22.32099915	29.55593681	1.904607892	62.31967545	1.0
[RightForeArm]
151	-278.414978	0	0	-7.726891454e-06	6.720946789	-4.50373318e-06	1.0
152	-278.414978	0	0	-1.106422678e-05	6.706334114	-1.124471237e-05	1.0
153	-278.414978	0	0	-1.067396443e-05	6.688207626	-1.188530496e-05	1.0
154	-278.414978	0	0	-2.655037406e-06	6.662387371	-1.970807489e-06	1.0
[RightHand]
151	-283.2879944	0	0.0009999999311	-20.60181999	1.708401322	5.736684322	1.0
152	-283.2879944	0	0.0009999999311	-20.60143471	1.705909371	5.684672356	1.0
153	-283.2879944	0	0.0009999999311	-20.60347176	1.705537438	5.628311157	1.0
154	-283.2879944	0	0.0009999999311	-20.61519432	1.725904107	5.574000359	1.0
[RightHandPinky1]
151	-80.76699829	-4.885000229	-38.06000137	-1.507175922	-4.696118355	26.50587463	1.0
152	-80.76699829	-4.885000229	-38.06000137	-1.507175922	-4.696118355	26.50587463	1.0
153	-80.76699829	-4.885000229	-38.06000137	-1.507175922	-4.696118355	26.50587463	1.0
154	-80.76699829	-4.885000229	-38.06000137	-1.507175922	-4.696118355	26.50587463	1.0
[RightHandPinky2]
151	-36	0	0.0009999999311	-0.2127676606	-1.388874292	17.43785858	1.0
152	-36	0	0.0009999999311	-0.2127676606	-1.388874292	17.43785858	1.0
153	-36	0	0.0009999999311	-0.2127676606	-1.388874292	17.43785858	1.0
154	-36	0	0.0009999999311	-0.2127676606	-1.388874292	17.43785858	1.0
[RightHandPinky3]
151	-21.14200211	0	0	-0.1919144988	-1.32059598	16.53641129	1.0
152	-21.14200211	0	0	-0.1919144988	-1.32059598	16.53641129	1.0
153	-21.14200211	0	0	-0.1919144988	-1.32059598	16.53641129	1.0
154	-21.14200211	0	0	-0.1919144988	-1.32059598	16.53641129	1.0
[RightHandPinky4]
151	-19.75699997	0	0	0	0	0	1.0
152	-19.75699997	0	0	0	0	0	1.0
153	-19.75699997	0	0	0	0	0	1.0
154	-19.75699997	0	0	0	0	0	1.0
[RightHandRing1]
151	-91.03599548	-0.4390000105	-18.65100098	-1.045235753	-2.883111477	20.47788429	1.0
152	-91.03599548	-0.4390000105	-18.65100098	-1.045235753	-2.883111477	20.47788429	1.0
153	-91.03599548	-0.4390000105	-18.65100098	-1.045235753	-2.883111477	20.47788429	1.0
154	-91.03599548	-0.4390000105	-18.65100098	-1.045235753	-2.883111477	20.47788429	1.0
[RightHandRing2]
151	-31.54000092	0	0	-0.3066971898	-1.658752441	20.94926834	1.0
152	-31.54000092	0	0	-0.3066971898	-1.658752441	20.94926834	1.0
153	-31.54000092	0	0	-0.3066971898	-1.658752441	20.94926834	1.0
154	-31.54000092	0	0	-0.3066971898	-1.658752441	20.94926834	1.0
[RightHandRing3]
151	-29.37700081	0	0	-0.2245407403	-1.425854325	17.89771652	1.0
152	-29.37700081	0	0	-0.2245407403	-1.425854325	17.89771652	1.0
153	-29.37700081	0	0	-0.2245407403	-1.425854325	17.89771652	1.0
154	-29.37700081	0	0	-0.2245407403	-1.425854325	17.89771652	1.0
[RightHandRing4]
151	-26.47500038	0	0	0	0	0	1.0
152	-26.47500038	0	0	0	0	0	1.0
153	-26.47500038	0	0	0	0	0	1.0
154	-26.47500038	0	0	0	0	0	1.0
[RightHandMiddle1]
151	-95.32500458	0	0	-0.7017197609	-2.087752104	15.0152874	1.0
152	-95.32500458	0	0	-0.7017197609	-2.087752104	15.0152874	1.0
153	-95.32500458	0	0	-0.7017197609	-2.087752104	15.0152874	1.0
154	-95.32500458	0	0	-0.7017197609	-2.087752104	15.0152874	1.0
[RightHandMiddle2]
151	-36.98199844	0	0	-0.213228479	-1.390354872	17.43750381	1.0
152	-36.98199844	0	0	-0.213228479	-1.390354872	17.43750381	1.0
153	-36.98199844	0	0	-0.213228479	-1.390354872	17.43750381	1.0
154	-36.98199844	0	0	-0.213228479	-1.390354872	17.43750381	1.0
[RightHandMiddle3]
151	-29.50900078	0	0	-0.2384106964	-1.470119596	18.44692802	1.0
152	-29.50900078	0	0	-0.2384106964	-1.470119596	18.44692802	1.0
153	-29.50900078	0	0	-0.2384106964	-1.470119596	18.44692802	1.0
154	-29.50900078	0	0	-0.2384106964	-1.470119596	18.44692802	1.0
[RightHandMiddle4]
151	-28.3390007	0	0.0009999999311	0	0	0	1.0
152	-28.3390007	0	0.0009999999311	0	0	0	1.0
153	-28.3390007	0	0.0009999999311	0	0	0	1.0
154	-28.3390007	0	0.0009999999311	0	0	0	1.0
[RightHandIndex1]
151	-91.08300018	-5.167999744	22.60099792	0.1884763837	1.25192976	6.825599194	1.0
152	-91.08300018	-5.167999744	22.60099792	0.1884763837	1.25192976	6.825599194	1.0
153	-91.08300018	-5.167999744	22.60099792	0.1884763837	1.25192976	6.825599194	1.0
154	-91.08300018	-5.167999744	22.60099792	0.1884763837	1.25192976	6.825599194	1.0
[RightHandIndex2]
151	-36.76399994	0	0	-0.2125098109	-1.388050556	17.40767097	1.0
152	-36.76399994	0	0	-0.2125098109	-1.388050556	17.40767097	1.0
153	-36.76399994	0	0	-0.2125098109	-1.388050556	17.40767097	1.0
154	-36.76399994	0	0	-0.2125098109	-1.388050556	17.40767097	1.0
[RightHandIndex3]
151	-28.83100128	0	0	-0.04576345533	-0.650116384	8.053516388	1.0
152	-28.83100128	0	0	-0.04576345533	-0.650116384	8.053516388	1.0
153	-28.83100128	0	0	-0.04576345533	-0.650116384	8.053516388	1.0
154	-28.83100128	0	0	-0.04576345533	-0.650116384	8.053516388	1.0
[RightHandIndex4]
151	-23.92700005	0	0	0	0	0	1.0
152	-23.92700005	0	0	0	0	0	1.0
153	-23.92700005	0	0	0	0	0	1.0
154	-23.92700005	0	0	0	0	0	1.0
[RightHandThumb1]
151	-24.64799881	-15.72700024	26.82600021	-1.658462524	-0.2891407609	-4.221328735	1.0
152	-24.64799881	-15.72700024	26.82600021	-1.658462524	-0.2891407609	-4.221328735	1.0
153	-24.64799881	-15.72700024	26.82600021	-1.658462524	-0.2891407609	-4.221328735	1.0
154	-24.64799881	-15.72700024	26.82600021	-1.658462524	-0.2891407609	-4.221328735	1.0
[RightHandThumb2]
151	-32.29800034	-18.64699936	18.64699936	22.25259209	-23.88967514	-24.282444	1.0
152	-32.29800034	-18.64699936	18.64699936	22.25259209	-23.88967514	-24.282444	1.0
153	-32.29800034	-18.64699936	18.64699936	22.25259209	-23.88967514	-24.282444	1.0
154	-32.29800034	-18.64699936	18.64699936	22.25259209	-23.88967514	-24.282444	1.0
[RightHandThumb3]
151	-26.52600098	-15.31399918	15.31399918	-14.47830296	-6.743862152	-11.36570263	1.0
152	-26.52600098	-15.31399918	15.31399918	-14.47830296	-6.743862152	-11.36570263	1.0
153	-26.52600098	-15.31399918	15.31399918	-14.47830296	-6.743862152	-11.36570263	1.0
154	-26.52600098	-15.31399918	15.31399918	-14.47830296	-6.743862152	-11.36570263	1.0
[RightHandThumb4]
151	-19.54599953	-11.28499985	11.28499985	0	0	0	1.0
152	-19.54599953	-11.28499985	11.28499985	0	0	0	1.0
153	-19.54599953	-11.28499985	11.28499985	0	0	0	1.0
154	-19.54599953	-11.28499985	11.28499985	0	0	0	1.0
[LeftUpLeg]
151	82.07800293	-67.51699829	-15.99599934	-7.222241402	16.70552444	7.905041695	1.0
152	82.07800293	-67.51699829	-15.99599934	-7.226241112	16.69129562	7.885402679	1.0
153	82.07800293	-67.51699829	-15.99599934	-7.229399681	16.68075752	7.867554188	1.0
154	82.07800293	-67.51699829	-15.99599934	-7.242327213	16.67491913	7.853633881	1.0
[LeftLeg]
151	0	-443.7049866	2.845999956	12.33964443	0.2662265301	4.436144829	1.0
152	0	-443.7049866	2.845999956	12.30814552	0.3006068766	4.454601288	1.0
153	0	-443.7049866	2.845999956	12.27641296	0.3318285048	4.469680786	1.0
154	0	-443.7049866	2.845999956	12.25339127	0.3468160629	4.475845337	1.0
[LeftFoot]
151	0	-444.2789917	-29.8219986	0.8543279767	0.692045629	-7.363704681	1.0
152	0	-444.2789917	-29.8219986	0.8792879581	0.6924179196	-7.359531403	1.0
153	0	-444.2789917	-29.8219986	0.904750824	0.692733705	-7.353836536	1.0
154	0	-444.2789917	-29.8219986	0.9290251732	0.6933426857	-7.349261284	1.0
[LeftToeBase]
151	0	-87.28699493	107.1060028	-4.920772076	-3.327947297e-06	2.147510713e-06	1.0
152	0	-87.28699493	107.1060028	-4.916814804	-8.451806934e-07	6.015994245e-07	1.0
153	0	-87.28699493	107.1060028	-4.912033558	4.125045962e-06	-9.377561696e-07	1.0
154	0	-87.28699493	107.1060028	-4.906438351	3.307354746e-06	1.522033017e-06	1.0
[RightUpLeg]
151	-82.07800293	-67.51699829	-15.99599934	0.661993742	-10.70141315	3.170022488	1.0
152	-82.07800293	-67.51699829	-15.99599934	0.638240099	-10.71196365	3.161117792	1.0
153	-82.07800293	-67.51699829	-15.99599934	0.6171660423	-10.72072887	3.15346694	1.0
154	-82.07800293	-67.51699829	-15.99599934	0.5911386013	-10.71945858	3.153471708	1.0
[RightLeg]
151	0	-443.7049866	2.861999989	9.191437721	-9.156805992	-4.817769527	1.0
152	0	-443.7049866	2.861999989	9.195554733	-9.156579971	-4.813059807	1.0
153	0	-443.7049866	2.861999989	9.194436073	-9.156490326	-4.808870316	1.0
154	0	-443.7049866	2.861999989	9.191090584	-9.155956268	-4.809871197	1.0
[RightFoot]
151	0	-444.2770081	-29.83799934	-5.08430481	-1.310342431	3.305800438	1.0
152	0	-444.2770081	-29.83799934	-5.072583199	-1.289477468	3.299565554	1.0
153	0	-444.2770081	-29.83799934	-5.057948112	-1.272049069	3.293954849	1.0
154	0	-444.2770081	-29.83799934	-5.040987968	-1.27205801	3.291677952	1.0
[RightToeBase]
151	0	-87.28699493	107.1060028	-7.151374817	-9.140017028e-06	1.444528721e-06	1.0
152	0	-87.28699493	107.1060028	-7.152960777	-1.260905447e-05	1.790085889e-06	1.0
153	0	-87.28699493	107.1060028	-7.153687	-1.224488733e-05	1.571520102e-06	1.0
154	0	-87.28699493	107.1060028	-7.157488346	4.609921689e-06	-6.384757967e-07	1.0
[EndOfFile]
